<svg xmlns="http://www.w3.org/2000/svg" width="640" height="640" viewBox="0 0 169.333 169.333"><path d="M-86.676 193.213v32.15q0 10.716 10.716 10.716 2.21 0 3.751 1.607 1.608 1.54 1.608 3.75 0 2.211-1.608 3.818-1.54 1.541-3.75 1.541-10.717 0-10.717 10.716v32.15q0 21.432-21.433 21.432-2.21 0-3.818-1.607-1.54-1.54-1.54-3.75 0-2.211 1.54-3.819 1.608-1.54 3.818-1.54 10.716 0 10.716-10.716v-32.15q0-10.716 5.359-16.074-5.359-5.358-5.359-16.075v-32.15q0-10.715-10.716-10.715-2.21 0-3.818-1.541-1.54-1.607-1.54-3.818 0-2.21 1.54-3.75 1.608-1.608 3.818-1.608 21.433 0 21.433 21.433zM-188.514 171.78q2.21 0 3.751 1.608 1.608 1.54 1.608 3.75t-1.608 3.818q-1.54 1.54-3.75 1.54-10.717 0-10.717 10.717v32.15q0 10.716-5.358 16.074 5.358 5.358 5.358 16.074v32.15q0 10.716 10.716 10.716 2.21 0 3.751 1.54 1.608 1.608 1.608 3.818t-1.608 3.75q-1.54 1.608-3.75 1.608-21.433 0-21.433-21.432v-32.15q0-10.716-10.717-10.716-2.21 0-3.818-1.54-1.54-1.608-1.54-3.818t1.54-3.751q1.608-1.607 3.818-1.607 10.717 0 10.717-10.717v-32.15q0-21.432 21.432-21.432z" style="font-size:137.17px;line-height:125%;font-family:Comfortaa;-inkscape-font-specification:&quot;Comfortaa, Normal&quot;;font-variant-ligatures:none;text-align:center;letter-spacing:0;word-spacing:0;text-anchor:middle;fill:#3a4a52;stroke-width:.257272" transform="translate(232.978 -156.77)"/><path d="M80.13 195.248V97.825h55.133v97.423l-27.566-27.566z" style="baseline-shift:baseline;display:inline;overflow:visible;fill:#6199bf;fill-opacity:1;stroke:#3a4a52;stroke-width:10.5833;stroke-linecap:butt;stroke-linejoin:round;stroke-dasharray:none;stroke-opacity:1;paint-order:markers fill stroke;enable-background:accumulate;stop-color:#000" transform="translate(-23.03 -61.87)"/></svg>